<svg xmlns="http://www.w3.org/2000/svg" data-name="Layer 1" viewBox="0 0 64 64"><path d="M14,55.5V62h2V55a1,1,0,0,0-.4-.8L4.522,45.892l.633-.633,9.33,5.6A1,1,0,0,0,15,51H25a1,1,0,0,0,.515-.143l9.33-5.6.633.633L24.4,54.2a1,1,0,0,0-.4.8v7h2V55.5L32,51l6,4.5V62h2V55a1,1,0,0,0-.4-.8l-5.934-4.45,1.32-.99,3.5,2.1A1,1,0,0,0,39,51H49a1,1,0,0,0,.515-.143l9.33-5.6.633.633L48.4,54.2a1,1,0,0,0-.4.8v7h2V55.5l11.6-8.7a1,1,0,0,0,.107-1.507l-2-2a1,1,0,0,0-1.222-.15L48.723,49H46.794a4.5,4.5,0,1,0-5.588,0h-1.93l-2.562-1.536L37.6,46.8a1,1,0,0,0,.107-1.507l-2-2a1,1,0,0,0-1.222-.15L32,44.634l-2.485-1.491a1,1,0,0,0-1.222.15l-2,2A1,1,0,0,0,26.4,46.8l.884.666L24.723,49H22.794a4.5,4.5,0,1,0-5.588,0H15.277L5.515,43.143a1,1,0,0,0-1.222.15l-2,2A1,1,0,0,0,2.4,46.8ZM44,43a2.5,2.5,0,1,1-2.5,2.5A2.5,2.5,0,0,1,44,43ZM29.155,45.259l.9.541-.924.554-.611-.46ZM20,43a2.5,2.5,0,1,1-2.5,2.5A2.5,2.5,0,0,1,20,43Z"/><rect width="2" height="2" x="31" y="36"/><rect width="2" height="2" x="31" y="40"/><path d="M32,34A16,16,0,1,0,16,18,16.019,16.019,0,0,0,32,34ZM32,4A14,14,0,1,1,18,18,14.015,14.015,0,0,1,32,4Z"/><path d="M31.271,28.186a1,1,0,0,0,1.458,0l7.745-8.228a5.78,5.78,0,0,0,0-7.81h0a5.112,5.112,0,0,0-7.519,0L32,13.163l-.955-1.015a5.112,5.112,0,0,0-7.519,0,5.78,5.78,0,0,0,0,7.81ZM24.983,13.519a3.111,3.111,0,0,1,4.605,0l1.683,1.789a1.034,1.034,0,0,0,1.458,0l1.683-1.789a3.183,3.183,0,0,1,4.605,0,3.751,3.751,0,0,1,0,5.068L32,26.041l-7.017-7.454A3.751,3.751,0,0,1,24.983,13.519Z"/></svg>